<?xml version="1.0" encoding="UTF-8"?>
<svg xmlns="http://www.w3.org/2000/svg" xmlns:xlink="http://www.w3.org/1999/xlink" width="500" height="527.099976" viewBox="0 0 500 527.099976">
<path fill-rule="nonzero" fill="rgb(0%, 40%, 85.490196%)" fill-opacity="1" d="M 410.398438 58.300781 L 368.800781 81.199219 L 348.199219 120.601562 L 368.800781 168.800781 L 407.800781 211 L 450 187.5 L 475.898438 142.800781 L 450 87.5 Z M 410.398438 58.300781 "/>
<path fill-rule="nonzero" fill="rgb(14.901961%, 51.764706%, 98.823529%)" fill-opacity="1" d="M 249.300781 219.398438 L 348.199219 120.5 C 377.300781 142.601562 398.699219 174.300781 407.800781 210.898438 L 272.101562 346.699219 C 259.898438 358.898438 240.101562 358.898438 227.898438 346.699219 L 136.398438 255.199219 C 126.601562 245.398438 126.601562 229.601562 136.398438 219.898438 L 175.398438 180.898438 C 185.199219 171.101562 201 171.101562 210.699219 180.898438 Z M 519.800781 63.601562 L 480.101562 23.898438 C 470.398438 14.199219 454.5 14.199219 444.800781 23.898438 L 410.398438 58.300781 C 437.898438 81.300781 460.300781 110.101562 475.898438 142.800781 L 519.800781 98.898438 C 529.601562 89.199219 529.601562 73.300781 519.800781 63.601562 Z M 412.5 250 C 412.5 339.800781 339.699219 412.5 250 412.5 C 160.300781 412.5 87.5 339.800781 87.5 250 C 87.5 160.199219 160.199219 87.5 250 87.5 C 286.898438 87.5 320.898438 99.800781 348.199219 120.601562 L 410.398438 58.398438 C 367 21.898438 311.101562 0 250 0 C 111.898438 0 0 111.898438 0 250 C 0 388.101562 111.898438 500 250 500 C 388.101562 500 500 388.101562 500 250 C 500 211.699219 491.300781 175.300781 475.898438 142.800781 L 407.800781 211 C 410.800781 223.5 412.5 236.601562 412.5 250 Z M 412.5 250 "/>
</svg>
